<svg xmlns:xlink="http://www.w3.org/1999/xlink" xmlns="http://www.w3.org/2000/svg" width="497.90000000000003" height="120.32245728234338" viewBox="0 0 409.6666666666667 99" class="css-1j8o68f"><defs id="SvgjsDefs6159"><linearGradient id="SvgjsLinearGradient6168"><stop id="SvgjsStop6169" stop-color="#b88746" offset="0"></stop><stop id="SvgjsStop6170" stop-color="#fdf5a6" offset="1"></stop></linearGradient><linearGradient id="SvgjsLinearGradient6171"><stop id="SvgjsStop6172" stop-color="#b88746" offset="0"></stop><stop id="SvgjsStop6173" stop-color="#fdf5a6" offset="1"></stop></linearGradient><linearGradient id="SvgjsLinearGradient6174"><stop id="SvgjsStop6175" stop-color="#b88746" offset="0"></stop><stop id="SvgjsStop6176" stop-color="#fdf5a6" offset="1"></stop></linearGradient><linearGradient id="SvgjsLinearGradient6168"><stop id="SvgjsStop6169" stop-color="#b88746" offset="0"></stop><stop id="SvgjsStop6170" stop-color="#fdf5a6" offset="1"></stop></linearGradient><linearGradient id="SvgjsLinearGradient6168"><stop id="SvgjsStop6169" stop-color="#b88746" offset="0"></stop><stop id="SvgjsStop6170" stop-color="#fdf5a6" offset="1"></stop></linearGradient><linearGradient id="SvgjsLinearGradient6171"><stop id="SvgjsStop6172" stop-color="#b88746" offset="0"></stop><stop id="SvgjsStop6173" stop-color="#fdf5a6" offset="1"></stop></linearGradient><linearGradient id="SvgjsLinearGradient6171"><stop id="SvgjsStop6172" stop-color="#b88746" offset="0"></stop><stop id="SvgjsStop6173" stop-color="#fdf5a6" offset="1"></stop></linearGradient><linearGradient id="SvgjsLinearGradient6174"><stop id="SvgjsStop6175" stop-color="#b88746" offset="0"></stop><stop id="SvgjsStop6176" stop-color="#fdf5a6" offset="1"></stop></linearGradient><linearGradient id="SvgjsLinearGradient6174"><stop id="SvgjsStop6175" stop-color="#b88746" offset="0"></stop><stop id="SvgjsStop6176" stop-color="#fdf5a6" offset="1"></stop></linearGradient></defs><g id="SvgjsG6160" featurekey="symbolGroupContainer" transform="matrix(1,0,0,1,0,0)" fill="url(&quot;#SvgjsLinearGradient6168&quot;)"><rect xmlns="http://www.w3.org/2000/svg" width="98" height="99" rx="10" ry="10" fill="url(&quot;#SvgjsLinearGradient6168&quot;)"></rect></g><g id="SvgjsG6161" featurekey="symbolFeature-0" transform="matrix(0.6557180032949991,0,0,0.6557180032949991,16.380436946989143,16.721409983525003)" fill="#212121"><circle xmlns="http://www.w3.org/2000/svg" cx="42.125" cy="19.337" r="9.916" fill="#212121"></circle><circle xmlns="http://www.w3.org/2000/svg" cx="27.438" cy="63.042" r="4.958" fill="#212121"></circle><circle xmlns="http://www.w3.org/2000/svg" cx="62.284" cy="87.752" r="4.958" fill="#212121"></circle><circle xmlns="http://www.w3.org/2000/svg" cx="46.204" cy="33.938" r="4.462" fill="#212121"></circle><circle xmlns="http://www.w3.org/2000/svg" cx="64.86" cy="59.99" r="5.356" fill="#212121"></circle><path xmlns="http://www.w3.org/2000/svg" d="M74.019,19.736c2.416,0,4.487-1.398,5.505-3.418c-3.036-2.71-6.439-5.016-10.13-6.832c-0.959,1.089-1.561,2.503-1.561,4.068  C67.833,16.97,70.603,19.736,74.019,19.736z" fill="#212121"></path><circle xmlns="http://www.w3.org/2000/svg" cx="62.615" cy="30.244" r="11.237" fill="#212121"></circle><path xmlns="http://www.w3.org/2000/svg" d="M93.643,59.136c-0.273,1.32-0.608,2.617-0.996,3.893C93.2,61.829,93.546,60.519,93.643,59.136z" fill="#212121"></path><path xmlns="http://www.w3.org/2000/svg" d="M82.447,47.098c-6.207,0-11.237,5.031-11.237,11.239c0,6.205,5.03,11.238,11.237,11.238c4.528,0,8.422-2.687,10.199-6.547  c0.388-1.275,0.723-2.572,0.996-3.893c0.019-0.265,0.041-0.528,0.041-0.799C93.684,52.129,88.652,47.098,82.447,47.098z" fill="#212121"></path><path xmlns="http://www.w3.org/2000/svg" d="M17.748,33.007c0-3.719-2.476-6.828-5.855-7.863c-2.983,4.52-5.172,9.608-6.373,15.069c1.181,0.652,2.52,1.057,3.965,1.057  C14.047,41.27,17.748,37.571,17.748,33.007z" fill="#212121"></path><circle xmlns="http://www.w3.org/2000/svg" cx="71.619" cy="76.304" r="8.263" fill="#212121"></circle><path xmlns="http://www.w3.org/2000/svg" d="M58.373,17.711c4.198,0,7.6-3.403,7.6-7.602c0-0.8-0.157-1.554-0.386-2.278C61.562,6.293,57.26,5.321,52.776,5  c-1.233,1.353-2.005,3.135-2.005,5.109C50.771,14.308,54.173,17.711,58.373,17.711z" fill="#212121"></path><path xmlns="http://www.w3.org/2000/svg" d="M13.703,69.904c4.197,0,7.6-3.403,7.6-7.602c0-4.196-3.403-7.602-7.6-7.602c-4.12,0-7.454,3.283-7.58,7.371  c0.479,1.719,1.053,3.397,1.726,5.027C9.243,68.799,11.333,69.904,13.703,69.904z" fill="#212121"></path><circle xmlns="http://www.w3.org/2000/svg" cx="23.286" cy="52.574" r="4.481" fill="#212121"></circle><path xmlns="http://www.w3.org/2000/svg" d="M39.335,88.411c0-2.474-2.007-4.48-4.48-4.48c-2.476,0-4.482,2.007-4.482,4.48c0,1.048,0.375,2,0.979,2.763  c1.395,0.615,2.826,1.164,4.292,1.638C37.739,92.438,39.335,90.616,39.335,88.411z" fill="#212121"></path><circle xmlns="http://www.w3.org/2000/svg" cx="13.015" cy="47.207" r="5.802" fill="#212121"></circle><circle xmlns="http://www.w3.org/2000/svg" cx="26.313" cy="30.271" r="7.603" fill="#212121"></circle><path xmlns="http://www.w3.org/2000/svg" d="M62.137,71.661c-0.032-8.119-6.643-14.678-14.762-14.646c-8.122,0.032-14.68,6.64-14.646,14.76  c0.03,8.123,6.64,14.679,14.76,14.647C55.61,86.391,62.169,79.783,62.137,71.661z" fill="#212121"></path><path xmlns="http://www.w3.org/2000/svg" d="M81.061,17.76c-3.272,3.114-5.316,7.506-5.298,12.381c0.038,9.399,7.686,16.989,17.085,16.952  c0.55-0.001,1.096-0.036,1.633-0.088C93.744,35.57,88.751,25.299,81.061,17.76z" fill="#212121"></path><path xmlns="http://www.w3.org/2000/svg" d="M70.2,42.307c-2.465,0.01-4.453,2.015-4.444,4.48c0.01,2.462,2.015,4.453,4.48,4.445c2.463-0.011,4.451-2.018,4.442-4.483  C74.671,44.286,72.664,42.298,70.2,42.307z" fill="#212121"></path><circle xmlns="http://www.w3.org/2000/svg" cx="23.67" cy="42.116" r="2.643" fill="#212121"></circle><circle xmlns="http://www.w3.org/2000/svg" cx="37.26" cy="46.034" r="9.454" fill="#212121"></circle><path xmlns="http://www.w3.org/2000/svg" d="M30.479,11.066c-0.002-0.646-0.07-1.278-0.196-1.886c-5.257,2.486-9.955,5.957-13.856,10.178  c1.373,0.766,2.952,1.206,4.635,1.199C26.284,20.536,30.5,16.285,30.479,11.066z" fill="#212121"></path><path xmlns="http://www.w3.org/2000/svg" d="M31.842,78.716c-0.022-5.22-4.271-9.435-9.491-9.416c-4.465,0.019-8.185,3.132-9.16,7.292  c3.252,4.425,7.294,8.228,11.917,11.214C29.015,86.632,31.857,83.005,31.842,78.716z" fill="#212121"></path><circle xmlns="http://www.w3.org/2000/svg" cx="55.339" cy="48.772" r="7.603" fill="#212121"></circle><path xmlns="http://www.w3.org/2000/svg" d="M48.537,87.771c-3.811,0.016-6.958,2.778-7.604,6.402C43.715,94.709,46.585,95,49.522,95c2.28,0,4.52-0.173,6.71-0.5  C55.717,90.694,52.482,87.757,48.537,87.771z" fill="#212121"></path></g><g id="SvgjsG6162" featurekey="nameFeature-0" transform="matrix(1.067765654933385,0,0,1.067765654933385,117.57289382712796,-0.8131868408999381)" fill="url(&quot;#SvgjsLinearGradient6171&quot;)"><path d="M4.72 40 l-3.6 -23.04 l-0.72 -0.48 l0 -4.48 l5.04 0 l2.52 16.12 l2.52 -16.12 l4.76 0 l2.52 16.12 l2.52 -16.12 l5.04 0 l0 4.48 l-0.72 0.48 l-3.6 23.04 l-6.48 0 l-1.64 -10.6 l-1.68 10.6 l-6.48 0 z M32.374 40 l-3.72 -3.72 l0 -20.56 l3.72 -3.72 l9.08 0 l3.72 3.72 l0 20.56 l-3.72 3.72 l-9.08 0 z M34.454 34.96 l4.92 0 l0.76 -0.76 l0 -16.4 l-0.76 -0.76 l-4.92 0 l-0.76 0.76 l0 16.4 z M49.30800000000001 40 l0 -4.48 l0.84 -0.56 l0 -17.92 l-0.84 -0.56 l0 -4.48 l12.8 0 l3.72 3.72 l0 10.2 l-2.16 2.2 l1.72 6.68 l1 0.72 l0 4.48 l-6.88 0 l0 -4.48 l0.72 -0.48 l-1.4 -5.4 l-3.64 0 l0 5.32 l0.84 0.56 l0 4.48 l-6.72 0 z M55.188 24.6 l4.84 0 l0.76 -0.76 l0 -6.04 l-0.76 -0.76 l-4.84 0 l0 7.56 z M70.162 40 l0 -4.48 l0.84 -0.56 l0 -17.92 l-0.84 -0.56 l0 -4.48 l6.72 0 l0 4.48 l-0.84 0.56 l0 17.92 l2.8 0 l0.56 -0.84 l4.48 0 l0 5.88 l-13.72 0 z M88.016 40 l0 -4.48 l0.84 -0.56 l0 -17.92 l-0.84 -0.56 l0 -4.48 l13.36 0 l3.72 3.72 l0 20.56 l-3.72 3.72 l-13.36 0 z M93.896 34.96 l5.4 0 l0.76 -0.76 l0 -16.4 l-0.76 -0.76 l-5.4 0 l0 17.92 z M121.684 40 l-3.6 -23.04 l-0.72 -0.48 l0 -4.48 l5.04 0 l2.52 16.12 l2.52 -16.12 l4.76 0 l2.52 16.12 l2.52 -16.12 l5.04 0 l0 4.48 l-0.72 0.48 l-3.6 23.04 l-6.48 0 l-1.64 -10.6 l-1.68 10.6 l-6.48 0 z M145.618 40 l0 -4.48 l0.84 -0.56 l0 -17.92 l-0.84 -0.56 l0 -4.48 l6.72 0 l0 4.48 l-0.84 0.56 l0 17.92 l0.84 0.56 l0 4.48 l-6.72 0 z M156.472 40 l0 -4.48 l0.84 -0.56 l0 -17.92 l-0.84 -0.56 l0 -4.48 l13.36 0 l3.72 3.72 l0 20.56 l-3.72 3.72 l-13.36 0 z M162.35200000000003 34.96 l5.4 0 l0.76 -0.76 l0 -16.4 l-0.76 -0.76 l-5.4 0 l0 17.92 z M177.686 40 l0 -4.48 l0.84 -0.56 l0 -17.92 l-0.84 -0.56 l0 -4.48 l14.56 0 l0 5.88 l-4.48 0 l-0.56 -0.84 l-3.64 0 l0 6.44 l6.44 0 l0 5.04 l-6.44 0 l0 6.44 l3.64 0 l0.56 -0.84 l4.48 0 l0 5.88 l-14.56 0 z M209.994 40 l-4.64 -22.96 l-0.84 -0.56 l0 -4.48 l4.96 0 l4 19.76 l4 -19.76 l4.96 0 l0 4.48 l-0.84 0.56 l-4.64 22.96 l-6.96 0 z M225.768 40 l0 -4.48 l0.84 -0.56 l0 -17.92 l-0.84 -0.56 l0 -4.48 l6.72 0 l0 4.48 l-0.84 0.56 l0 17.92 l0.84 0.56 l0 4.48 l-6.72 0 z M240.342 40 l-3.72 -3.72 l0 -5.24 l5.04 0 l0 3.16 l0.76 0.76 l4.08 0 l0.76 -0.76 l0 -4.92 l-0.76 -0.76 l-6.16 0 l-3.72 -3.72 l0 -9.08 l3.72 -3.72 l8.24 0 l3.72 3.72 l0 5.24 l-5.04 0 l0 -3.16 l-0.76 -0.76 l-4.08 0 l-0.76 0.76 l0 4.92 l0.76 0.76 l6.16 0 l3.72 3.72 l0 9.08 l-3.72 3.72 l-8.24 0 z M255.63600000000002 40 l0 -4.48 l0.84 -0.56 l3.64 -17.92 l-0.84 -0.56 l0 -4.48 l10.64 0 l0 4.48 l-0.84 0.56 l3.64 17.92 l0.84 0.56 l0 4.48 l-4.96 0 l-1.24 -6.16 l-5.52 0 l-1.24 6.16 l-4.96 0 z M262.87600000000003 28.8 l3.44 0 l-1.72 -8.56 z" fill="url(&quot;#SvgjsLinearGradient6171&quot;)"></path></g><g id="SvgjsG6163" featurekey="sloganFeature-0" transform="matrix(1.6693068110552933,0,0,1.6693068110552933,118,53.01912757351049)" fill="url(&quot;#SvgjsLinearGradient6174&quot;)"><path d="M3.98 20 l-1.98 0 l-2 -14.28 l1.92 0 l1.04 7.36 l0.96 -7.36 l1.92 0 z M10.768 5.68 l0 14.24 l-1.9 0 l0 -14.24 l1.9 0 z M16.536 20.12 c-1.52 0 -2.74 -1.24 -2.74 -2.74 l0 -2.18 l1.94 0 l0 2.18 c0 0.44 0.36 0.8 0.8 0.8 s0.78 -0.36 0.78 -0.8 l0 -1.9 l-3.52 -4.86 l0 -2.48 c0 -1.52 1.22 -2.76 2.74 -2.76 c1.5 0 2.72 1.24 2.72 2.76 l0 2.16 l-1.94 0 l0 -2.16 c0 -0.46 -0.34 -0.8 -0.78 -0.8 s-0.8 0.34 -0.8 0.8 l0 1.82 l3.52 4.86 l0 2.56 c0 1.5 -1.22 2.74 -2.72 2.74 z M27.384 20 l-0.72 -4.94 l-2.02 0 l-0.66 4.94 l-1.92 0 l2.16 -14.3 l2.58 0 l2.5 14.3 l-1.92 0 z M24.904 13.16 l1.48 0 l-0.76 -5.2 z M41.1 20.12 c-1.52 0 -2.74 -1.24 -2.74 -2.74 l0 -2.18 l1.94 0 l0 2.18 c0 0.44 0.36 0.8 0.8 0.8 s0.78 -0.36 0.78 -0.8 l0 -1.9 l-3.52 -4.86 l0 -2.48 c0 -1.52 1.22 -2.76 2.74 -2.76 c1.5 0 2.72 1.24 2.72 2.76 l0 2.16 l-1.94 0 l0 -2.16 c0 -0.46 -0.34 -0.8 -0.78 -0.8 s-0.8 0.34 -0.8 0.8 l0 1.82 l3.52 4.86 l0 2.56 c0 1.5 -1.22 2.74 -2.72 2.74 z M53.148 5.68 l0 1.92 l-2.38 0 l0 12.42 l-1.92 0 l0 -12.42 l-2.62 0 l0 -1.92 l6.92 0 z M59.116 20.04 c-1.62 0 -2.94 -1.32 -2.94 -2.94 l0 -11.36 l1.9 0 l0 11.36 c0 0.58 0.46 1.06 1.04 1.06 s1.04 -0.48 1.04 -1.06 l0 -11.36 l1.9 0 l0 11.36 c0 1.62 -1.32 2.94 -2.94 2.94 z M67.584 20.02 l-2.5 0 l0 -14.26 l2.5 0 c1.7 0 3.06 1.38 3.06 3.08 l0 8.1 c0 0.82 -0.32 1.6 -0.9 2.18 s-1.34 0.9 -2.16 0.9 z M66.98400000000001 7.68 l0 10.42 l0.6 0 c0.3 0 0.6 -0.12 0.82 -0.34 s0.34 -0.5 0.34 -0.82 l0 -8.1 c0 -0.64 -0.52 -1.16 -1.16 -1.16 l-0.6 0 z M80.752 5.720000000000001 l-2.68 8.68 l0 5.6 l-1.94 0 l0 -5.62 l-2.46 -8.66 l2 0 l1.46 5.14 l1.6 -5.14 l2.02 0 z M96.72800000000001 5.68 l0 1.92 l-2.38 0 l0 12.42 l-1.92 0 l0 -12.42 l-2.62 0 l0 -1.92 l6.92 0 z M101.876 20.02 c-1.5 0 -2.7 -1.22 -2.7 -2.7 l0 -8.98 c0 -1.48 1.2 -2.68 2.7 -2.68 c1.48 0 2.68 1.2 2.68 2.68 l0 8.98 c0 1.48 -1.2 2.7 -2.68 2.7 z M101.876 7.5600000000000005 c-0.44 0 -0.78 0.36 -0.78 0.78 l0 8.98 c0 0.44 0.34 0.78 0.78 0.78 c0.42 0 0.78 -0.34 0.78 -0.78 l0 -8.98 c0 -0.42 -0.36 -0.78 -0.78 -0.78 z M110.524 20.04 c-1.62 0 -2.94 -1.32 -2.94 -2.94 l0 -11.36 l1.9 0 l0 11.36 c0 0.58 0.46 1.06 1.04 1.06 s1.04 -0.48 1.04 -1.06 l0 -11.36 l1.9 0 l0 11.36 c0 1.62 -1.32 2.94 -2.94 2.94 z M121.97200000000001 20.04 l-2.04 0 l-1.1 -3.02 l-0.44 0 l0 3.02 l-1.9 0 l0 -14.32 l2.98 0 c1.32 0 2.38 1.06 2.38 2.38 l0 6.54 c0 0.86 -0.44 1.6 -1.12 2.02 z M118.39200000000001 7.619999999999999 l0 7.5 l1.08 0 c0.26 0 0.48 -0.22 0.48 -0.48 l0 -6.54 c0 -0.26 -0.22 -0.48 -0.48 -0.48 l-1.08 0 z M127.74 20.12 c-1.52 0 -2.74 -1.24 -2.74 -2.74 l0 -2.18 l1.94 0 l0 2.18 c0 0.44 0.36 0.8 0.8 0.8 s0.78 -0.36 0.78 -0.8 l0 -1.9 l-3.52 -4.86 l0 -2.48 c0 -1.52 1.22 -2.76 2.74 -2.76 c1.5 0 2.72 1.24 2.72 2.76 l0 2.16 l-1.94 0 l0 -2.16 c0 -0.46 -0.34 -0.8 -0.78 -0.8 s-0.8 0.34 -0.8 0.8 l0 1.82 l3.52 4.86 l0 2.56 c0 1.5 -1.22 2.74 -2.72 2.74 z" fill="url(&quot;#SvgjsLinearGradient6174&quot;)"></path></g></svg>